# xmcd CD database file
#
# Track frame offsets:
#	150
#	68751
#	120522
#	154181
#	193358
#
# Disc length: 3434 seconds
#
# Revision: 0
# Processed by: cddbd v1.5.1PL0 Copyright (c) Steve Scherf et al.
# Submitted via: CDex 1.50beta10
#
DISCID=410d6805
DTITLE=Wayne Shorter Group - Live Express
DYEAR=1996
DGENRE=Jazz
TTITLE0=Over Shadow Hill Way
TTITLE1=Virgo Rising
TTITLE2=Midnight in Carlotta's Hair
TTITLE3=On the Milky Way Express
TTITLE4=Endangered Species
EXTD=YEAR: 1996
EXTT0=
EXTT1=
EXTT2=
EXTT3=
EXTT4=
PLAYORDER=
